<?xml version="1.0" encoding="utf-8"?>
<!-- Generator: Adobe Illustrator 16.0.0, SVG Export Plug-In . SVG Version: 6.00 Build 0)  -->
<!DOCTYPE svg PUBLIC "-//W3C//DTD SVG 1.0//EN" "http://www.w3.org/TR/2001/REC-SVG-20010904/DTD/svg10.dtd">
<svg version="1.0" id="Layer_1" xmlns="http://www.w3.org/2000/svg" xmlns:xlink="http://www.w3.org/1999/xlink" x="0px" y="0px"
	 width="800px" height="800px" viewBox="0 0 800 800" enable-background="new 0 0 800 800" xml:space="preserve">
<g>
	<polygon fill="#00008B" points="94.199,102.392 94.199,369.099 174.967,328.164 174.967,102.392 	"/>
	<rect x="94.205" y="371.107" fill="#00008B" width="211.659" height="80.773"/>
	<rect x="286.971" y="102.392" fill="#00008B" width="259.27" height="80.776"/>
	<polygon fill="#00008B" points="456.974,451.87 376.218,451.87 376.218,226.113 456.974,185.168 	"/>
	<polygon fill="#00008B" points="612.133,143.386 612.133,451.881 692.92,451.881 692.92,102.486 	"/>
	<path fill="#00008B" d="M737.201,621.292c15.897,0,26.011,11.496,27.104,29.859h-54.347
		C711.201,632.959,721.185,621.292,737.201,621.292 M775.992,653.927c0-25.018-15.557-41.646-38.791-41.646
		c-23.513,0-39.06,17.1-39.06,42.588c0,25.64,15.876,42.739,39.402,42.739c14.612,0,27.252-6.355,35.18-18.182l-8.561-4.813
		c-6.394,8.541-15.574,13.974-26.619,13.974c-16.359,0-26.182-11.647-27.425-29.528h65.712
		C775.992,657.205,775.992,655.331,775.992,653.927 M654.391,696.055l36.585-82.22h-12.328l-30.02,69.32l-30.061-69.32h-12.318
		l36.766,82.22H654.391z M577.292,575.816v120.238h28.646v-9.311h-17.421V575.816H577.292z M514.988,687.966
		c-18.192,0-30.351-13.19-30.351-32.936c0-19.906,12.158-32.957,30.351-32.957c18.071,0,30.069,13.051,30.069,32.957
		C545.058,674.775,533.06,687.966,514.988,687.966 M514.988,697.608c25.078,0,41.916-17.1,41.916-42.578
		c0-25.649-16.838-42.749-41.916-42.749c-25.219,0-42.188,17.1-42.188,42.749C472.801,680.509,489.77,697.608,514.988,697.608
		 M445.246,667.309c0,12.419-10.263,20.498-26.621,20.498c-10.744,0-20.718-3.399-28.982-11.958l-4.66,8.389
		c8.089,9.162,20.853,13.371,34.415,13.371c22.882,0,38.138-12.588,38.138-31.553c0-20.367-17.751-28.286-32.856-33.417
		l-6.985-2.325c-11.377-3.89-21.194-8.24-21.194-20.989c0-11.947,9.497-20.046,23.83-20.046c11.065,0,19.936,4.039,27.384,11.647
		l5.473-8.24c-8.239-8.399-18.684-13.189-32.856-13.189c-21.645,0-36.124,12.599-36.124,31.552c0,18.183,12.595,25.179,27.544,29.99
		l7.017,2.325C434.201,648.494,445.246,654.247,445.246,667.309 M315.056,674.775c0,8.38-6.836,13.813-16.965,13.813
		c-7.638,0-15.27-1.704-21.483-6.685l-4.687,6.985c5.919,5.753,15.426,8.72,26.17,8.72c17.426,0,28.481-9.481,28.481-23.765
		c0-13.521-10.264-19.436-21.646-23.174l-7.933-2.655c-7.793-2.627-13.702-5.884-13.702-13.502c0-8.089,6.545-13.221,16.033-13.221
		c7.16,0,14.027,1.704,20.256,6.055l4.816-7.599c-7.316-5.131-15.561-7.467-25.854-7.467c-16.022,0-26.767,9.492-26.767,23.945
		c0,12.409,8.414,17.26,20.085,21.129l7.934,2.625C308.521,662.788,315.056,667.158,315.056,674.775 M267.455,580.487h-11.847
		l-10.46,34.45h9.969L267.455,580.487z M234.078,623.176v-9.341h-20.537v-24.076H202.32v24.076h-20.568v9.341h20.568v72.879h11.221
		v-72.879H234.078z M135.82,621.292c15.907,0,26.021,11.496,27.099,29.859h-54.355C109.826,632.959,119.789,621.292,135.82,621.292
		 M174.586,653.927c0-25.018-15.546-41.646-38.766-41.646c-23.493,0-39.075,17.1-39.075,42.588c0,25.64,15.882,42.739,39.407,42.739
		c14.623,0,27.237-6.355,35.19-18.182l-8.569-4.813c-6.385,8.541-15.581,13.974-26.621,13.974
		c-16.363,0-26.186-11.647-27.409-29.528h65.692C174.586,657.205,174.586,655.331,174.586,653.927 M90.365,686.262H35.854V575.816
		H24.008v120.238h66.357V686.262z"/>
</g>
</svg>
